<?xml version="1.0" encoding="UTF-8" standalone="no"?>
<!-- Created with Inkscape (http://www.inkscape.org/) -->

<svg
   xmlns:dc="http://purl.org/dc/elements/1.1/"
   xmlns:cc="http://creativecommons.org/ns#"
   xmlns:rdf="http://www.w3.org/1999/02/22-rdf-syntax-ns#"
   xmlns:svg="http://www.w3.org/2000/svg"
   xmlns="http://www.w3.org/2000/svg"
   xmlns:sodipodi="http://sodipodi.sourceforge.net/DTD/sodipodi-0.dtd"
   xmlns:inkscape="http://www.inkscape.org/namespaces/inkscape"
   width="111mm"
   height="119mm"
   viewBox="0 0 393.30685 421.6533"
   id="svg2"
   version="1.1"
   inkscape:version="0.91 r13725"
   sodipodi:docname="a11yNot.svg">
  <defs
     id="defs4" />
  <sodipodi:namedview
     id="base"
     pagecolor="#ffffff"
     bordercolor="#666666"
     borderopacity="1.0"
     inkscape:pageopacity="0.0"
     inkscape:pageshadow="2"
     inkscape:zoom="1.979899"
     inkscape:cx="298.81283"
     inkscape:cy="371.41261"
     inkscape:document-units="px"
     inkscape:current-layer="layer1"
     showgrid="false"
     inkscape:window-width="1366"
     inkscape:window-height="705"
     inkscape:window-x="-4"
     inkscape:window-y="-4"
     inkscape:window-maximized="1"
     borderlayer="true" />
  <metadata
     id="metadata7">
    <rdf:RDF>
      <cc:Work
         rdf:about="">
        <dc:format>image/svg+xml</dc:format>
        <dc:type
           rdf:resource="http://purl.org/dc/dcmitype/StillImage" />
        <dc:title></dc:title>
      </cc:Work>
    </rdf:RDF>
  </metadata>
  <g
     inkscape:label="Layer 1"
     inkscape:groupmode="layer"
     id="layer1"
     transform="translate(0,-630.70877)">
    <g
       id="g3347"
       transform="translate(-162.55533,346.2282)">
      <path
         style="fill:#e6cd74"
         d="m 163.12498,495.21936 0,-210.46875 196.875,0 196.875,0 0,210.46875 0,210.46875 -196.875,0 -196.875,0 0,-210.46875 z m 215.90868,177.06669 c 9.48339,-2.14621 17.17992,-6.03547 23.80118,-12.02737 11.00757,-9.96128 15.29014,-19.79484 15.29014,-35.10894 0,-15.29349 -3.28028,-23.06635 -14.00337,-33.18196 -11.22857,-10.59247 -23.18267,-14.63104 -43.46781,-14.68515 -21.7852,-0.0581 -32.9505,3.95685 -45.27935,16.28214 -9.8464,9.84354 -11.77228,14.41461 -12.35219,29.31796 -0.63016,16.19462 3.01001,25.18542 14.56671,35.97811 11.75823,10.98089 22.41531,14.73321 42.22594,14.86764 8.41813,0.0571 14.6641,-0.41165 19.21875,-1.44243 z M 401.6713,548.89124 c 0.36924,-1.19374 12.76722,-224.04466 12.72617,-228.75001 l -0.0225,-2.57812 -54.84375,0 c -30.16406,0 -54.84375,0.15174 -54.84375,0.33721 0,0.18546 2.95312,52.04518 6.5625,115.24382 3.60937,63.19864 6.5625,115.35939 6.5625,115.91279 0,1.56431 83.37467,1.39957 83.85882,-0.16569 z"
         id="path3353"
         inkscape:connector-curvature="0" />
      <path
         style="fill:#5c5d6f"
         d="m 341.24998,672.00474 c -9.7295,-2.61707 -16.29343,-6.26339 -23.66101,-13.1439 -11.5567,-10.79269 -15.19687,-19.78349 -14.56671,-35.97811 0.57991,-14.90334 2.50579,-19.47442 12.35219,-29.31796 12.32885,-12.32529 23.49415,-16.34026 45.27935,-16.28214 20.28514,0.0541 32.23924,4.09268 43.46781,14.68515 10.72309,10.11561 14.00337,17.88847 14.00337,33.18196 0,15.3141 -4.28257,25.14766 -15.29014,35.10894 -10.89539,9.85976 -22.86201,13.60659 -43.01993,13.4698 -8.6919,-0.059 -14.31783,-0.58134 -18.56493,-1.72374 z m 36.09375,-0.94955 c 4.125,-0.994 9.60937,-2.74416 12.1875,-3.88924 21.18171,-9.4079 32.33964,-33.2627 25.67668,-54.89471 -2.69218,-8.74045 -5.59105,-13.39109 -12.10779,-19.42444 -21.1826,-19.61135 -64.11253,-19.5814 -85.32709,0.0595 -6.63923,6.14676 -9.37963,10.54497 -12.06575,19.36491 -3.42617,11.24993 -2.02092,23.38484 4.07258,35.16835 3.4088,6.59189 13.88029,15.94613 21.72939,19.41099 13.69201,6.04413 31.44308,7.67252 45.83448,4.20461 z M 317.81248,549.05693 c 0,-0.5534 -2.95313,-52.71415 -6.5625,-115.91279 -3.60938,-63.19864 -6.5625,-115.05836 -6.5625,-115.24382 0,-0.18547 24.67969,-0.33721 54.84375,-0.33721 l 54.84375,0 0.0225,2.57812 c 0.0411,4.70535 -12.35693,227.55627 -12.72617,228.75001 -0.48416,1.56526 -83.85883,1.73 -83.85883,0.16569 z m 82.22978,-1.10319 c 1.01472,-1.32586 13.76451,-227.15966 12.90331,-228.5531 -0.66199,-1.07113 -106.05956,-1.26567 -106.68179,-0.19691 -0.47961,0.82382 12.31839,227.01724 12.94266,228.75001 0.32872,0.91244 9.22404,1.17187 40.18057,1.17187 30.70338,0 39.96265,-0.2669 40.65525,-1.17187 z"
         id="path3351"
         inkscape:connector-curvature="0" />
      <path
         style="fill:#373e6f"
         d="m 342.65623,670.59825 c -9.78836,-2.79003 -13.76458,-4.5967 -19.58448,-8.89854 -9.30753,-6.87977 -13.14032,-12.22829 -17.09493,-23.85532 -2.83321,-8.32998 -2.92311,-16.86004 -0.26954,-25.57315 2.68612,-8.81994 5.42652,-13.21815 12.06575,-19.3649 21.21456,-19.64094 64.14449,-19.67089 85.32709,-0.0595 6.51674,6.03335 9.41561,10.68399 12.10779,19.42444 6.66296,21.63201 -4.49497,45.48681 -25.67668,54.89471 -13.48779,5.99063 -32.91017,7.41279 -46.875,3.4323 z M 319.20644,547.95374 c -0.62427,-1.73277 -13.42227,-227.92619 -12.94266,-228.75001 0.62223,-1.06876 106.0198,-0.87422 106.68179,0.19691 0.8612,1.39344 -11.88859,227.22724 -12.90331,228.5531 -0.6926,0.90497 -9.95187,1.17187 -40.65525,1.17187 -30.95653,0 -39.85185,-0.25943 -40.18057,-1.17187 z"
         id="path3349"
         inkscape:connector-curvature="0" />
    </g>
  </g>
</svg>
